<svg id="visual" viewBox="0 0 900 600" width="900" height="600" xmlns="http://www.w3.org/2000/svg" xmlns:xlink="http://www.w3.org/1999/xlink" version="1.1"><rect x="0" y="0" width="900" height="600" fill="#001220"></rect><path d="M0 466L12.5 470.5C25 475 50 484 75 486C100 488 125 483 150 480.2C175 477.3 200 476.7 225 475.8C250 475 275 474 300 473.5C325 473 350 473 375 474C400 475 425 477 450 481.2C475 485.3 500 491.7 525 494.8C550 498 575 498 600 497.8C625 497.7 650 497.3 675 495.8C700 494.3 725 491.7 750 491.2C775 490.7 800 492.3 825 488.2C850 484 875 474 887.5 469L900 464L900 601L887.5 601C875 601 850 601 825 601C800 601 775 601 750 601C725 601 700 601 675 601C650 601 625 601 600 601C575 601 550 601 525 601C500 601 475 601 450 601C425 601 400 601 375 601C350 601 325 601 300 601C275 601 250 601 225 601C200 601 175 601 150 601C125 601 100 601 75 601C50 601 25 601 12.5 601L0 601Z" fill="#bf3a30"></path><path d="M0 498L12.5 495.7C25 493.3 50 488.7 75 488C100 487.3 125 490.7 150 492C175 493.3 200 492.7 225 491C250 489.3 275 486.7 300 488.8C325 491 350 498 375 498.2C400 498.3 425 491.7 450 489.7C475 487.7 500 490.3 525 494C550 497.7 575 502.3 600 501.2C625 500 650 493 675 490.7C700 488.3 725 490.7 750 491C775 491.3 800 489.7 825 491.8C850 494 875 500 887.5 503L900 506L900 601L887.5 601C875 601 850 601 825 601C800 601 775 601 750 601C725 601 700 601 675 601C650 601 625 601 600 601C575 601 550 601 525 601C500 601 475 601 450 601C425 601 400 601 375 601C350 601 325 601 300 601C275 601 250 601 225 601C200 601 175 601 150 601C125 601 100 601 75 601C50 601 25 601 12.5 601L0 601Z" fill="#b33132"></path><path d="M0 501L12.5 502.7C25 504.3 50 507.7 75 508C100 508.3 125 505.7 150 504.5C175 503.3 200 503.7 225 504.5C250 505.3 275 506.7 300 509.7C325 512.7 350 517.3 375 517.3C400 517.3 425 512.7 450 509.2C475 505.7 500 503.3 525 505.5C550 507.7 575 514.3 600 515.8C625 517.3 650 513.7 675 514C700 514.3 725 518.7 750 518.8C775 519 800 515 825 511.3C850 507.7 875 504.3 887.5 502.7L900 501L900 601L887.5 601C875 601 850 601 825 601C800 601 775 601 750 601C725 601 700 601 675 601C650 601 625 601 600 601C575 601 550 601 525 601C500 601 475 601 450 601C425 601 400 601 375 601C350 601 325 601 300 601C275 601 250 601 225 601C200 601 175 601 150 601C125 601 100 601 75 601C50 601 25 601 12.5 601L0 601Z" fill="#a72834"></path><path d="M0 523L12.5 522.3C25 521.7 50 520.3 75 518.5C100 516.7 125 514.3 150 516.2C175 518 200 524 225 527.3C250 530.7 275 531.3 300 531.7C325 532 350 532 375 532.5C400 533 425 534 450 533.2C475 532.3 500 529.7 525 529.3C550 529 575 531 600 532.3C625 533.7 650 534.3 675 530.7C700 527 725 519 750 517C775 515 800 519 825 523C850 527 875 531 887.5 533L900 535L900 601L887.5 601C875 601 850 601 825 601C800 601 775 601 750 601C725 601 700 601 675 601C650 601 625 601 600 601C575 601 550 601 525 601C500 601 475 601 450 601C425 601 400 601 375 601C350 601 325 601 300 601C275 601 250 601 225 601C200 601 175 601 150 601C125 601 100 601 75 601C50 601 25 601 12.5 601L0 601Z" fill="#9a2134"></path><path d="M0 546L12.5 544.2C25 542.3 50 538.7 75 537.2C100 535.7 125 536.3 150 536.8C175 537.3 200 537.7 225 536.5C250 535.3 275 532.7 300 532.7C325 532.7 350 535.3 375 536.5C400 537.7 425 537.3 450 537.8C475 538.3 500 539.7 525 540.7C550 541.7 575 542.3 600 541.7C625 541 650 539 675 536.2C700 533.3 725 529.7 750 528.8C775 528 800 530 825 533.2C850 536.3 875 540.7 887.5 542.8L900 545L900 601L887.5 601C875 601 850 601 825 601C800 601 775 601 750 601C725 601 700 601 675 601C650 601 625 601 600 601C575 601 550 601 525 601C500 601 475 601 450 601C425 601 400 601 375 601C350 601 325 601 300 601C275 601 250 601 225 601C200 601 175 601 150 601C125 601 100 601 75 601C50 601 25 601 12.5 601L0 601Z" fill="#8c1a34"></path><path d="M0 542L12.5 544.5C25 547 50 552 75 554C100 556 125 555 150 553C175 551 200 548 225 547.3C250 546.7 275 548.3 300 550.3C325 552.3 350 554.7 375 554.5C400 554.3 425 551.7 450 549.7C475 547.7 500 546.3 525 547.7C550 549 575 553 600 555.3C625 557.7 650 558.3 675 558.7C700 559 725 559 750 557.8C775 556.7 800 554.3 825 553.8C850 553.3 875 554.7 887.5 555.3L900 556L900 601L887.5 601C875 601 850 601 825 601C800 601 775 601 750 601C725 601 700 601 675 601C650 601 625 601 600 601C575 601 550 601 525 601C500 601 475 601 450 601C425 601 400 601 375 601C350 601 325 601 300 601C275 601 250 601 225 601C200 601 175 601 150 601C125 601 100 601 75 601C50 601 25 601 12.5 601L0 601Z" fill="#7f1333"></path><path d="M0 565L12.5 565.8C25 566.7 50 568.3 75 568.5C100 568.7 125 567.3 150 567.7C175 568 200 570 225 569.5C250 569 275 566 300 565C325 564 350 565 375 564.5C400 564 425 562 450 561.8C475 561.7 500 563.3 525 564C550 564.7 575 564.3 600 563.7C625 563 650 562 675 561.7C700 561.3 725 561.7 750 561.8C775 562 800 562 825 562.5C850 563 875 564 887.5 564.5L900 565L900 601L887.5 601C875 601 850 601 825 601C800 601 775 601 750 601C725 601 700 601 675 601C650 601 625 601 600 601C575 601 550 601 525 601C500 601 475 601 450 601C425 601 400 601 375 601C350 601 325 601 300 601C275 601 250 601 225 601C200 601 175 601 150 601C125 601 100 601 75 601C50 601 25 601 12.5 601L0 601Z" fill="#720e31"></path><path d="M0 573L12.5 574.8C25 576.7 50 580.3 75 582.2C100 584 125 584 150 584C175 584 200 584 225 582.5C250 581 275 578 300 578C325 578 350 581 375 581.3C400 581.7 425 579.3 450 579C475 578.7 500 580.3 525 579.7C550 579 575 576 600 574.8C625 573.7 650 574.3 675 576.2C700 578 725 581 750 582C775 583 800 582 825 580.8C850 579.7 875 578.3 887.5 577.7L900 577L900 601L887.5 601C875 601 850 601 825 601C800 601 775 601 750 601C725 601 700 601 675 601C650 601 625 601 600 601C575 601 550 601 525 601C500 601 475 601 450 601C425 601 400 601 375 601C350 601 325 601 300 601C275 601 250 601 225 601C200 601 175 601 150 601C125 601 100 601 75 601C50 601 25 601 12.5 601L0 601Z" fill="#64092f"></path></svg>